<?xml version="1.0" encoding="utf-8"?>
<!-- Generator: Adobe Illustrator 25.4.1, SVG Export Plug-In . SVG Version: 6.00 Build 0)  -->
<svg version="1.1" id="Calque_1" xmlns="http://www.w3.org/2000/svg" xmlns:xlink="http://www.w3.org/1999/xlink" x="0px" y="0px"
	 viewBox="0 0 400 400" style="enable-background:new 0 0 400 400;" xml:space="preserve">
<style type="text/css">
	.st0{fill:#67BFD3;}
	.st1{fill:#FFFFFF;}
</style>
<g>
	<path class="st0" d="M286.3,374.3V27.1c0-6.5,5.3-11.8,11.8-11.8h0c6.5,0,11.8,5.3,11.8,11.8l0,347.2c0,6.5-5.3,11.8-11.8,11.8l0,0
		C291.6,386.1,286.3,380.8,286.3,374.3z"/>
	<path class="st0" d="M188.4,374.3l0-347.2c0-6.5,5.3-11.8,11.8-11.8h0c6.5,0,11.8,5.3,11.8,11.8l0,347.2c0,6.5-5.3,11.8-11.8,11.8
		h0C193.7,386.1,188.4,380.8,188.4,374.3z"/>
	<path class="st0" d="M90.5,374.3l0-347.2c0-6.5,5.3-11.8,11.8-11.8h0c6.5,0,11.8,5.3,11.8,11.8l0,347.2c0,6.5-5.3,11.8-11.8,11.8h0
		C95.8,386.1,90.5,380.8,90.5,374.3z"/>
	<g>
		<circle class="st0" cx="298.1" cy="171.5" r="39.8"/>
		<circle class="st1" cx="298.1" cy="171.5" r="23.4"/>
	</g>
	<g>
		<circle class="st0" cx="200.2" cy="300" r="39.8"/>
		<circle class="st1" cx="200.2" cy="300" r="23.4"/>
	</g>
	<g>
		<circle class="st0" cx="102.4" cy="98.1" r="39.8"/>
		<circle class="st1" cx="102.4" cy="98.1" r="23.4"/>
	</g>
</g>
</svg>
