<?xml version="1.0" encoding="utf-8"?>
<!-- Generator: Adobe Illustrator 25.4.1, SVG Export Plug-In . SVG Version: 6.00 Build 0)  -->
<svg version="1.1" id="Calque_1" xmlns="http://www.w3.org/2000/svg" xmlns:xlink="http://www.w3.org/1999/xlink" x="0px" y="0px"
	 viewBox="0 0 400 400" style="enable-background:new 0 0 400 400;" xml:space="preserve">
<style type="text/css">
	.st0{fill:#67BFD3;}
</style>
<g>
	<g>
		<g>
			<g>
				<path class="st0" d="M200.2,11.9c-84.3,0-152.9,68.6-152.9,152.9c0,34.8,11.4,67.6,33,94.8c27.9,35.2,109.1,118.8,112.6,122.4
					l7.3,7.6l7.3-7.6c3.4-3.5,84.7-87.2,112.6-122.4c21.6-27.2,32.9-59.9,32.9-94.7C353.1,80.5,284.6,11.9,200.2,11.9z M304.2,246.8
					c-22.5,28.4-82.9,91.4-103.9,113.3c-21-21.8-81.4-84.9-103.9-113.2c-18.7-23.5-28.5-51.9-28.5-82c0-73,59.4-132.4,132.4-132.4
					c73,0,132.4,59.4,132.4,132.4C332.7,194.9,322.8,223.3,304.2,246.8z"/>
			</g>
		</g>
		<g>
			<g>
				<path class="st0" d="M200.2,72.6c-49.9,0-90.5,40.6-90.5,90.5c0,49.9,40.6,90.5,90.5,90.5s90.5-40.6,90.5-90.5
					C290.7,113.2,250.1,72.6,200.2,72.6z M200.2,233.1c-38.6,0-70-31.4-70-70c0-38.6,31.4-70,70-70c38.6,0,70,31.4,70,70
					C270.3,201.7,238.9,233.1,200.2,233.1z"/>
			</g>
		</g>
	</g>
</g>
</svg>
