<?xml version="1.0" encoding="utf-8"?>
<!-- Generator: Adobe Illustrator 25.4.1, SVG Export Plug-In . SVG Version: 6.00 Build 0)  -->
<svg version="1.1" id="Calque_1" xmlns="http://www.w3.org/2000/svg" xmlns:xlink="http://www.w3.org/1999/xlink" x="0px" y="0px"
	 viewBox="0 0 400 400" style="enable-background:new 0 0 400 400;" xml:space="preserve">
<style type="text/css">
	.st0{fill:#67BFD3;}
</style>
<g>
	<path class="st0" d="M358.3,365.2H41.1c-16.4,0-29.7-13.3-29.7-29.7v-13.9H388v13.9C388,351.8,374.7,365.2,358.3,365.2z
		 M23.3,333.5v2c0,9.8,8,17.8,17.8,17.8h317.1c9.8,0,17.8-8,17.8-17.8v-2H23.3z"/>
	<rect x="41.1" y="122.8" class="st0" width="39.6" height="11.9"/>
	<path class="st0" d="M47.1,326.9H35.2V120.8c0-16.4,13.3-29.7,29.7-29.7h15.8v11.9H64.9c-9.8,0-17.8,8-17.8,17.8V326.9z"/>
	<path class="st0" d="M183.4,296.2l15.9-60.8l99.1-99.1l44.9,44.9l-99.1,99.1L183.4,296.2z M210,241.5l-9.9,38.1l38.1-9.9l88.4-88.4
		l-28.1-28.1L210,241.5z"/>
	<path class="st0" d="M362.9,161.7l-45-44.9l16.8-16.8c5.5-5.6,13-8.6,21.1-8.6l0,0c8.5,0,16.8,3.5,22.9,9.6
		c12.3,12.4,12.7,32.2,0.8,44.1L362.9,161.7z M334.7,116.8l28.1,28.1l8.3-8.3c7.2-7.3,6.9-19.5-0.9-27.3c-3.9-3.9-9.1-6.1-14.5-6.1
		l0,0c-4.9,0-9.4,1.8-12.7,5.1L334.7,116.8z"/>
	<path class="st0" d="M335,189.6L290,144.7l36.3-36.3l45,44.9L335,189.6z M306.8,144.7l28.1,28.1l19.5-19.5l-28.1-28.1L306.8,144.7z
		"/>
	
		<rect x="217" y="230.8" transform="matrix(0.7071 -0.7071 0.7071 0.7071 -116.1999 232.8464)" class="st0" width="11.9" height="51.7"/>
	<polygon class="st0" points="86.7,327.5 74.8,327.5 74.8,36.1 324.6,36.1 324.6,124.5 312.7,124.5 312.7,48 86.7,48 	"/>
	<rect x="312.7" y="197.5" class="st0" width="11.9" height="130"/>
	<rect x="120.4" y="83.7" class="st0" width="158.6" height="11.9"/>
	<rect x="120.4" y="139.2" class="st0" width="118.9" height="11.9"/>
	<rect x="120.4" y="170.9" class="st0" width="87.2" height="11.9"/>
	<rect x="120.4" y="202.6" class="st0" width="55.5" height="11.9"/>
</g>
</svg>
