<!-- icon666.com - MILLIONS vector ICONS FREE --><svg version="1.1" id="Layer_1" xmlns="http://www.w3.org/2000/svg" xmlns:xlink="http://www.w3.org/1999/xlink" x="0px" y="0px" viewBox="0 0 511.973 511.973" style="enable-background:new 0 0 511.973 511.973;" xml:space="preserve"><rect x="376.719" y="331.172" transform="matrix(0.7396 -0.6731 0.6731 0.7396 -180.168 382.8986)" style="fill: rgb(255, 255, 255);" width="56" height="186.201" fill="#32BEA6"></rect><path style="fill: rgb(255, 255, 255);" d="M237.004,32.008c99.893,0,181.122,79.454,181.122,177.122s-81.229,177.122-181.122,177.122 S55.881,306.8,55.881,209.131S137.135,32.008,237.004,32.008 M237.004,0.009C120.423-1.063,25.026,92.55,23.882,209.131 c1.136,116.588,96.533,210.193,213.121,209.121c116.588,1.072,211.985-92.533,213.121-209.121 C448.989,92.55,353.592-1.063,237.004,0.009z" fill="#E04F5F"></path><ellipse style="fill: rgb(158, 255, 210);" cx="237.004" cy="209.115" rx="149.979" ry="147.171" fill="#C7D5DD"></ellipse><polygon style="" points="222.212,298.496 144.495,237.954 164.166,212.706 215.188,252.465 297.522,133.661 323.817,151.9 " fill="#FFFFFF"></polygon></svg>