<?xml version="1.0" encoding="utf-8"?>
<!-- Generator: Adobe Illustrator 25.4.1, SVG Export Plug-In . SVG Version: 6.00 Build 0)  -->
<svg version="1.1" id="Calque_1" xmlns="http://www.w3.org/2000/svg" xmlns:xlink="http://www.w3.org/1999/xlink" x="0px" y="0px"
	 viewBox="0 0 400 400" style="enable-background:new 0 0 400 400;" xml:space="preserve">
<style type="text/css">
	.st0{fill:#67BFD3;}
</style>
<g>
	<g>
		<g>
			<path class="st0" d="M197.9,390.3c-25.3,0-49.8-5-72.9-14.7c-22.3-9.4-42.3-22.9-59.5-40.1c-17.2-17.2-30.7-37.2-40.1-59.5
				c-9.8-23.1-14.7-47.6-14.7-72.9c0-25.3,5-49.8,14.7-72.9c9.4-22.3,22.9-42.3,40.1-59.5s37.2-30.7,59.5-40.1
				c23.1-9.8,47.6-14.7,72.9-14.7c29.4,0,57.6,6.6,83.7,19.7l-4.9,9.8c-24.6-12.3-51.1-18.6-78.9-18.6c-47.1,0-91.4,18.3-124.7,51.7
				C39.9,111.6,21.5,155.9,21.5,203c0,47.1,18.3,91.4,51.7,124.7c33.3,33.3,77.6,51.7,124.7,51.7c47.1,0,91.4-18.3,124.7-51.7
				s51.7-77.6,51.7-124.7c0-27.7-6.2-54.2-18.6-78.9l9.8-4.9c13.1,26.1,19.7,54.3,19.7,83.7c0,25.3-5,49.8-14.7,72.9
				c-9.4,22.3-22.9,42.3-40.1,59.5c-17.2,17.2-37.2,30.7-59.5,40.1C247.7,385.3,223.2,390.3,197.9,390.3z"/>
		</g>
		<g>
			<path class="st0" d="M197.9,323.3c-32.1,0-62.3-12.5-85.1-35.2c-22.7-22.7-35.2-52.9-35.2-85.1s12.5-62.3,35.2-85.1
				c22.7-22.7,52.9-35.2,85.1-35.2c21.2,0,42,5.6,60.2,16.1l-5.5,9.4c-16.5-9.6-35.5-14.6-54.7-14.6c-60.3,0-109.4,49.1-109.4,109.4
				s49.1,109.4,109.4,109.4S307.3,263.3,307.3,203c0-19.2-5.1-38.1-14.6-54.7l9.4-5.5c10.5,18.2,16.1,39,16.1,60.2
				c0,32.1-12.5,62.3-35.2,85.1C260.3,310.8,230.1,323.3,197.9,323.3z"/>
		</g>
		<g>
			<path class="st0" d="M197.9,256.3c-29.4,0-53.3-23.9-53.3-53.3c0-29.4,23.9-53.3,53.3-53.3c3.6,0,7.2,0.4,10.7,1.1l-2.2,10.7
				c-2.8-0.6-5.6-0.8-8.5-0.8c-23.4,0-42.4,19-42.4,42.4s19,42.4,42.4,42.4c23.4,0,42.4-19,42.4-42.4c0-2.9-0.3-5.8-0.9-8.6
				l10.7-2.2c0.7,3.5,1.1,7.2,1.1,10.8C251.2,232.4,227.3,256.3,197.9,256.3z"/>
		</g>
		<g>
			<path class="st0" d="M197.9,213.2c-5.6,0-10.2-4.6-10.2-10.2c0-5.6,4.6-10.2,10.2-10.2c5.6,0,10.2,4.6,10.2,10.2
				C208.2,208.6,203.6,213.2,197.9,213.2z M197.9,202.3c-0.4,0-0.7,0.3-0.7,0.7c0,0.4,0.3,0.7,0.7,0.7c0.4,0,0.7-0.3,0.7-0.7
				C198.6,202.6,198.3,202.3,197.9,202.3z"/>
		</g>
		<g>
			
				<rect x="184.2" y="152.8" transform="matrix(0.7071 -0.7071 0.7071 0.7071 -40.7988 217.9406)" class="st0" width="117" height="10.9"/>
		</g>
		<g>
			<path class="st0" d="M324.6,122.3h-46v-46L343.9,11l11.5,34.5L389.9,57L324.6,122.3z M289.5,111.4h30.6l49.6-49.6l-22.9-7.6
				l-7.6-22.9l-49.6,49.6V111.4z"/>
		</g>
	</g>
</g>
</svg>
