<!-- icon666.com - MILLIONS vector ICONS FREE --><svg id="svg6" clip-rule="evenodd" fill-rule="evenodd" stroke-linejoin="round" stroke-miterlimit="2" viewBox="0 0 24 24" xmlns="http://www.w3.org/2000/svg" xmlns:svg="http://www.w3.org/2000/svg"><path id="path2" d="m12 16.586 6.293-6.293c.39-.39 1.024-.39 1.414 0s.39 1.024 0 1.414l-7 7c-.39.391-1.024.391-1.414 0l-7-7c-.39-.39-.39-1.024 0-1.414s1.024-.39 1.414 0zm0-5 6.293-6.293c.39-.39 1.024-.39 1.414 0s.39 1.024 0 1.414l-7 7c-.39.391-1.024.391-1.414 0l-7-7c-.39-.39-.39-1.024 0-1.414s1.024-.39 1.414 0z" fill="#000000" style="fill: rgb(255, 255, 255);"></path></svg>