<?xml version="1.0" encoding="UTF-8"?><svg id="a" xmlns="http://www.w3.org/2000/svg" viewBox="0 0 710.51 152.39"><defs><style>.b{fill:#f64d4b;}.c{fill:#f9be00;}.d{fill:#00527d;}.e{fill:#c7037d;}.f{fill:#3c3c3b;}.g{fill:#5fc529;}</style></defs><polygon class="f" points="314.72 72.79 314.72 97.49 320.23 97.49 320.23 85.52 326.9 92.2 333.58 85.52 333.58 97.49 339.08 97.49 339.08 72.79 326.9 85 314.72 72.79"/><path class="f" d="M354.71,91.3c-.69,1.1-1.96,1.72-3.24,1.72-2.06,0-3.03-1.72-3.03-4.06v-8.67h-5.2v9.6c0,4.68,2.72,7.88,7.36,7.88,1.45,0,3.03-.55,4.1-1.55v1.27h5.2v-17.21h-5.2v11.01Z"/><rect class="f" x="363.96" y="73.06" width="5.2" height="24.43"/><path class="f" d="M390.01,72.79c-1.72,0-3.1,1.38-3.1,3.1,0,.76,.24,1.45,.69,1.96h4.82c.45-.52,.69-1.2,.69-1.96,0-1.72-1.38-3.1-3.1-3.1"/><path class="f" d="M387.4,80.29h-8.05v-5.16l-5.2,2.58v2.58h-3.37l1.14,4.54h2.24v7.36c0,3.25,2,5.27,5.2,5.3v-12.66h8.05v12.66h5.2v-17.21h-5.2Z"/><rect class="f" x="396.69" y="73.06" width="5.2" height="24.43"/><path class="f" d="M408.56,72.79c-1.72,0-3.1,1.38-3.1,3.1,0,.76,.24,1.45,.69,1.96h4.82c.45-.52,.69-1.2,.69-1.96,0-1.72-1.38-3.1-3.1-3.1"/><rect class="f" x="405.94" y="80.29" width="5.2" height="17.21"/><path class="f" d="M421.95,86.72l-.72-.28c-1.72-.65-2.27-.86-2.27-1.55,0-.55,.55-.79,1.24-.79,1.07,0,1.83,.62,2.48,1.55l2.96-2.92c-1.31-1.89-3.24-2.72-5.44-2.72-3.3,0-5.92,2.17-5.92,5.33,0,2.44,1.55,4.37,4.54,5.54l.89,.34c1.69,.65,2.17,.86,2.17,1.51,0,.62-.62,.79-1.34,.79-1.55,0-2.48-.86-3.17-2.1l-3.96,2.68c1.48,2.58,3.92,3.65,6.92,3.65,3.51,0,6.23-1.96,6.23-5.47,0-2.55-1.34-4.34-4.61-5.58"/><path class="f" d="M435.64,90.72v-5.88h4.3l1.14-4.54h-5.44v-5.16l-5.2,2.58v2.58h-3.37l1.14,4.54h2.24v7.36c0,3.27,2.03,5.3,5.27,5.3h4.75v-4.75h-2.82c-1.41,0-2-.59-2-2.03"/><path class="f" d="M385.22,88.89c-.58,0-1.05,.47-1.05,1.05s.47,1.05,1.05,1.05,1.05-.47,1.05-1.05-.47-1.05-1.05-1.05"/><path class="f" d="M301.13,72.57h-5.76v4.28l-.84-.84c-1.46-1.45-3.82-1.45-5.27,0l-7.36,7.36,4.07,4.07,5.92-5.92,6.56,6.56c-.57,5.71-5.4,10.11-11.19,10.11h-16.2v-17.06s0-.04,.02-.05l8.34-8.34,4.63,4.63,4.07-4.07-5.71-5.71c-.8-.8-1.86-1.24-3-1.24s-2.2,.44-3,1.24l-9.42,9.42c-1.1,1.1-1.71,2.57-1.71,4.12v22.82h21.96c9.38,0,17.01-7.63,17.01-17.01v-1.19l-3.14-3.14v-10.04Z"/><path class="g" d="M74.7,137.83c-1.98,0-3.6,1.61-3.6,3.6v4.04c0,1.78,1.3,3.26,2.99,3.55v2.76h1.21v-2.76c1.7-.29,2.99-1.77,2.99-3.55v-4.04c0-1.98-1.62-3.6-3.6-3.6m2.39,7.64c0,1.32-1.07,2.39-2.39,2.39s-2.39-1.07-2.39-2.39v-4.04c0-1.32,1.07-2.39,2.39-2.39s2.39,1.07,2.39,2.39v4.04Z"/><path class="g" d="M28.43,137.83c-1.98,0-3.6,1.61-3.6,3.6v4.04c0,1.78,1.3,3.26,2.99,3.55v2.76h1.21v-2.76c1.7-.29,2.99-1.77,2.99-3.55v-4.04c0-1.98-1.62-3.6-3.6-3.6m2.39,7.64c0,1.32-1.07,2.39-2.39,2.39s-2.39-1.07-2.39-2.39v-4.04c0-1.32,1.07-2.39,2.39-2.39s2.39,1.07,2.39,2.39v4.04Z"/><path class="g" d="M17.19,137.83c-1.98,0-3.6,1.61-3.6,3.6v4.04c0,1.78,1.3,3.26,2.99,3.55v2.76h1.21v-2.76c1.7-.29,2.99-1.77,2.99-3.55v-4.04c0-1.98-1.62-3.6-3.6-3.6m2.39,7.64c0,1.32-1.07,2.39-2.39,2.39s-2.39-1.07-2.39-2.39v-4.04c0-1.32,1.07-2.39,2.39-2.39s2.39,1.07,2.39,2.39v4.04Z"/><path class="g" d="M5.95,137.83c-1.98,0-3.6,1.61-3.6,3.6v4.04c0,1.78,1.3,3.26,2.99,3.55v2.76h1.21v-2.76c1.7-.29,2.99-1.77,2.99-3.55v-4.04c0-1.98-1.62-3.6-3.6-3.6m2.39,7.64c0,1.32-1.07,2.39-2.39,2.39s-2.39-1.07-2.39-2.39v-4.04c0-1.32,1.07-2.39,2.39-2.39s2.39,1.07,2.39,2.39v4.04Z"/><path class="g" d="M677.86,137.83c-1.98,0-3.6,1.61-3.6,3.6v4.04c0,1.78,1.3,3.26,2.99,3.55v2.76h1.21v-2.76c1.7-.29,2.99-1.77,2.99-3.55v-4.04c0-1.98-1.62-3.6-3.6-3.6m2.39,7.64c0,1.32-1.07,2.39-2.39,2.39s-2.39-1.07-2.39-2.39v-4.04c0-1.32,1.07-2.39,2.39-2.39s2.39,1.07,2.39,2.39v4.04Z"/><path class="g" d="M689.1,137.83c-1.98,0-3.6,1.61-3.6,3.6v4.04c0,1.78,1.3,3.26,2.99,3.55v2.76h1.21v-2.76c1.7-.29,2.99-1.77,2.99-3.55v-4.04c0-1.98-1.62-3.6-3.6-3.6m2.39,7.64c0,1.32-1.07,2.39-2.39,2.39s-2.39-1.07-2.39-2.39v-4.04c0-1.32,1.07-2.39,2.39-2.39s2.39,1.07,2.39,2.39v4.04Z"/><path class="g" d="M700.34,137.83c-1.98,0-3.6,1.61-3.6,3.6v4.04c0,1.78,1.3,3.26,2.99,3.55v2.76h1.21v-2.76c1.7-.29,2.99-1.77,2.99-3.55v-4.04c0-1.98-1.62-3.6-3.6-3.6m2.39,7.64c0,1.32-1.07,2.39-2.39,2.39s-2.39-1.07-2.39-2.39v-4.04c0-1.32,1.07-2.39,2.39-2.39s2.39,1.07,2.39,2.39v4.04Z"/><polygon class="b" points="120.6 138.9 120.6 135.81 111.95 135.81 111.95 122.04 110.73 122.04 110.73 135.81 107.57 135.81 107.57 132.03 106.36 132.03 106.36 135.81 103.16 135.81 103.16 112.39 101.94 112.39 101.94 135.81 98.74 135.81 98.74 130.35 97.53 130.35 97.53 135.81 94.33 135.81 94.33 124.37 93.11 124.37 93.11 135.81 89.91 135.81 89.91 106.41 88.7 106.41 88.7 135.81 85.5 135.81 85.5 89.06 98.76 89.06 110.73 89.06 110.73 120.05 111.95 120.05 111.95 87.85 98.76 87.85 98.76 83.32 96.25 83.32 96.25 84.53 97.55 84.53 97.55 87.85 85.5 87.85 85.5 84.53 95.24 84.53 95.24 83.32 89.54 83.32 89.54 80.83 88.33 80.83 88.33 83.32 85.5 83.32 85.5 82.59 85.5 81.1 85.5 77.16 84.28 77.16 84.28 81.1 84.28 82.59 84.28 83.32 84.28 83.92 84.28 87.85 84.28 89.06 84.28 135.81 84.28 137.02 84.28 152.39 120.6 152.39 120.6 140.59 119.39 140.59 119.39 151.18 85.5 151.18 85.5 137.02 111.95 137.02 119.39 137.02 119.39 138.9 120.6 138.9"/><rect class="b" x="84.28" y="73.81" width="1.21" height="2.33"/><rect class="b" x="88.33" y="77.69" width="1.21" height="1.87"/><rect class="b" x="88.7" y="97.64" width="1.21" height="7.52"/><rect class="b" x="88.7" y="90.85" width="1.21" height="4.9"/><rect class="b" x="93.11" y="90.85" width="1.21" height="31.67"/><rect class="b" x="97.53" y="101.66" width="1.21" height="27.07"/><rect class="b" x="97.53" y="90.85" width="1.21" height="9.57"/><rect class="b" x="101.94" y="90.85" width="1.21" height="19.92"/><rect class="b" x="106.36" y="103.73" width="1.21" height="26.62"/><rect class="b" x="106.36" y="95.66" width="1.21" height="6.74"/><rect class="b" x="106.36" y="90.85" width="1.21" height="3.58"/><rect class="b" x="103.97" y="139.61" width="10.44" height="1.21"/><rect class="b" x="97.13" y="139.61" width="5.42" height="1.21"/><rect class="b" x="89.34" y="139.61" width="6.05" height="1.21"/><rect class="b" x="110.71" y="143.49" width="3.74" height="1.21"/><rect class="b" x="89.38" y="143.49" width="19.81" height="1.21"/><rect class="b" x="100.7" y="147.38" width="13.79" height="1.21"/><rect class="b" x="89.42" y="147.38" width="9.34" height="1.21"/><path class="e" d="M41.17,60.48v91.92h24.91V74.59l-24.91-14.11Zm23.7,90.7h-22.49V62.56l22.49,12.74v75.88Z"/><rect class="e" x="52.27" y="77.09" width="9.36" height="1.21"/><rect class="e" x="45.78" y="77.09" width="4.88" height="1.21"/><rect class="e" x="45.78" y="82.02" width="15.85" height="1.21"/><rect class="e" x="57.56" y="86.96" width="4.08" height="1.21"/><rect class="e" x="50.43" y="86.96" width="6.21" height="1.21"/><rect class="e" x="45.78" y="86.96" width="3.58" height="1.21"/><rect class="e" x="45.78" y="91.89" width="15.85" height="1.21"/><rect class="e" x="55.26" y="96.82" width="6.37" height="1.21"/><rect class="e" x="45.78" y="96.82" width="7.93" height="1.21"/><rect class="e" x="45.78" y="101.76" width="15.85" height="1.21"/><rect class="e" x="48.67" y="106.69" width="12.96" height="1.21"/><rect class="e" x="45.78" y="106.69" width="1.74" height="1.21"/><rect class="e" x="45.78" y="111.63" width="15.85" height="1.21"/><rect class="e" x="57.18" y="116.56" width="4.46" height="1.21"/><rect class="e" x="51.2" y="116.56" width="4.75" height="1.21"/><rect class="e" x="45.78" y="116.56" width="4.27" height="1.21"/><rect class="e" x="45.78" y="121.49" width="15.85" height="1.21"/><rect class="e" x="51.21" y="126.43" width="10.43" height="1.21"/><rect class="e" x="45.78" y="126.43" width="4.19" height="1.21"/><rect class="e" x="45.78" y="131.36" width="15.85" height="1.21"/><rect class="e" x="56.49" y="136.3" width="5.15" height="1.21"/><rect class="e" x="45.78" y="136.3" width="9.4" height="1.21"/><rect class="e" x="45.78" y="141.23" width="15.85" height="1.21"/><path class="d" d="M582.53,152.39h46.02v-30.57h-46.02v30.57Zm1.21-1.21v-26h38.54v-1.21h-38.54v-.93h43.6v.93h-3.8v1.21h3.8v26h-43.6Z"/><path class="d" d="M590.66,127.24c-1.32,0-2.39,1.07-2.39,2.39v6.19h4.77v-3.96h-1.21v2.75h-2.35v-4.97c0-.65,.53-1.17,1.17-1.17s1.17,.53,1.17,1.17v1.31h1.21v-1.31c0-1.32-1.07-2.39-2.39-2.39"/><path class="d" d="M600.61,127.24c-1.32,0-2.39,1.07-2.39,2.39v6.19h4.77v-6.19c0-1.32-1.07-2.39-2.39-2.39m1.17,7.36h-2.35v-4.97c0-.65,.53-1.17,1.17-1.17s1.17,.53,1.17,1.17v4.97Z"/><path class="d" d="M610.56,127.24c-1.32,0-2.39,1.07-2.39,2.39v2.3h1.21v-2.3c0-.65,.53-1.17,1.17-1.17s1.17,.53,1.17,1.17v4.97h-2.35v-1.37h-1.21v2.58h4.77v-6.19c0-1.32-1.07-2.39-2.39-2.39"/><path class="d" d="M620.51,127.24c-1.32,0-2.39,1.07-2.39,2.39v6.19h4.77v-6.19c0-1.32-1.07-2.39-2.39-2.39m1.17,7.36h-2.35v-4.97c0-.65,.53-1.17,1.17-1.17s1.17,.53,1.17,1.17v4.97Z"/><path class="d" d="M590.66,139.21c-1.32,0-2.39,1.07-2.39,2.39v6.19h4.77v-6.19c0-1.32-1.07-2.39-2.39-2.39m1.17,7.36h-2.35v-4.97c0-.65,.53-1.17,1.17-1.17s1.17,.53,1.17,1.17v4.97Z"/><path class="d" d="M600.61,139.21c-1.32,0-2.39,1.07-2.39,2.39v1.06h1.21v-1.06c0-.65,.53-1.17,1.17-1.17s1.17,.53,1.17,1.17v4.97h-2.35v-3.07h-1.21v4.29h4.77v-6.19c0-1.32-1.07-2.39-2.39-2.39"/><path class="d" d="M610.56,139.21c-1.32,0-2.39,1.07-2.39,2.39v6.19h4.77v-6.19c0-1.32-1.07-2.39-2.39-2.39m1.17,7.36h-2.35v-4.97c0-.65,.53-1.17,1.17-1.17s1.17,.53,1.17,1.17v4.97Z"/><path class="d" d="M620.51,139.21c-1.32,0-2.39,1.07-2.39,2.39v6.19h4.77v-3.9h-1.21v2.69h-2.35v-4.97c0-.65,.53-1.17,1.17-1.17s1.17,.53,1.17,1.17v1.29h1.21v-1.29c0-1.32-1.07-2.39-2.39-2.39"/><rect class="c" x="640.61" y="136.06" width="1.21" height="7.43"/><path class="c" d="M662.45,61.8h-14.16v10.43h-7.68v10.35h-4.69v69.8h31.46V61.8h-4.93Zm3.72,89.38h-3.72V71.39h-1.21v79.79h-6.79v-16.95h-1.21v16.95h-3.72V80.59h-1.21v70.59h-6.47v-5.15h-1.21v5.15h-3.48V83.8h3.48v49.96h1.21v-60.32h6.47v5.14h1.21v-15.58h3.72v59.41h1.21V63.01h6.79v5.77h1.21v-5.77h3.72v88.16Z"/><rect class="c" x="653.23" y="124.57" width="1.21" height="6.95"/><path class="d" d="M5.95,115.55c-.89,0-1.62,.73-1.62,1.62s.73,1.62,1.62,1.62,1.62-.73,1.62-1.62-.73-1.62-1.62-1.62m0,2.43c-.45,0-.81-.36-.81-.81s.36-.81,.81-.81,.81,.36,.81,.81-.36,.81-.81,.81"/><path class="d" d="M29.73,87.56c-1.03,0-1.86,.83-1.86,1.86s.83,1.86,1.86,1.86,1.86-.83,1.86-1.86-.83-1.86-1.86-1.86m0,2.91c-.58,0-1.05-.47-1.05-1.05s.47-1.05,1.05-1.05,1.05,.47,1.05,1.05-.47,1.05-1.05,1.05"/><path class="d" d="M91.56,50.4c-1.03,0-1.86,.83-1.86,1.86s.83,1.86,1.86,1.86,1.86-.84,1.86-1.86-.83-1.86-1.86-1.86m0,2.91c-.58,0-1.05-.47-1.05-1.05s.47-1.05,1.05-1.05,1.05,.47,1.05,1.05-.47,1.05-1.05,1.05"/><path class="d" d="M171.28,86.19c0,.8,.65,1.46,1.46,1.46s1.46-.65,1.46-1.46-.65-1.46-1.46-1.46-1.46,.65-1.46,1.46m2.1,0c0,.36-.29,.65-.65,.65s-.65-.29-.65-.65,.29-.65,.65-.65,.65,.29,.65,.65"/><path class="d" d="M693.5,114.7c-.8,0-1.46,.65-1.46,1.46s.65,1.46,1.46,1.46,1.46-.65,1.46-1.46-.65-1.46-1.46-1.46m0,2.1c-.36,0-.65-.29-.65-.65s.29-.65,.65-.65,.65,.29,.65,.65-.29,.65-.65,.65"/><path class="d" d="M549.78,61.88c-.8,0-1.46,.65-1.46,1.46s.65,1.46,1.46,1.46,1.46-.65,1.46-1.46-.65-1.46-1.46-1.46m0,2.1c-.36,0-.65-.29-.65-.65s.29-.65,.65-.65,.65,.29,.65,.65-.29,.65-.65,.65"/><path class="d" d="M595.68,65.7c-.8,0-1.46,.65-1.46,1.46s.65,1.46,1.46,1.46,1.46-.65,1.46-1.46-.65-1.46-1.46-1.46m0,2.1c-.36,0-.65-.29-.65-.65s.29-.65,.65-.65,.65,.29,.65,.65-.29,.65-.65,.65"/><path class="d" d="M687.6,34.62c0-.8-.65-1.46-1.46-1.46s-1.46,.65-1.46,1.46,.65,1.46,1.46,1.46,1.46-.65,1.46-1.46m-2.1,0c0-.36,.29-.65,.65-.65s.65,.29,.65,.65-.29,.65-.65,.65-.65-.29-.65-.65"/><path class="d" d="M50.47,3.73c-.8,0-1.46,.65-1.46,1.46s.65,1.46,1.46,1.46,1.46-.65,1.46-1.46-.65-1.46-1.46-1.46m0,2.1c-.36,0-.65-.29-.65-.65s.29-.65,.65-.65,.65,.29,.65,.65-.29,.65-.65,.65"/><path class="d" d="M155.95,13.51c-1.03,0-1.86,.83-1.86,1.86s.83,1.86,1.86,1.86,1.86-.83,1.86-1.86-.83-1.86-1.86-1.86m0,2.91c-.58,0-1.05-.47-1.05-1.05s.47-1.05,1.05-1.05,1.05,.47,1.05,1.05-.47,1.05-1.05,1.05"/><path class="d" d="M581.9,93.59c-1.03,0-1.86,.83-1.86,1.86s.83,1.86,1.86,1.86,1.86-.83,1.86-1.86-.83-1.86-1.86-1.86m0,2.91c-.58,0-1.05-.47-1.05-1.05s.47-1.05,1.05-1.05,1.05,.47,1.05,1.05-.47,1.05-1.05,1.05"/><path class="d" d="M607.41,97.73c-1.03,0-1.86,.83-1.86,1.86s.83,1.86,1.86,1.86,1.86-.84,1.86-1.86-.83-1.86-1.86-1.86m0,2.91c-.58,0-1.05-.47-1.05-1.05s.47-1.05,1.05-1.05,1.05,.47,1.05,1.05-.47,1.05-1.05,1.05"/><path class="d" d="M614.69,33.58c1.03,0,1.86-.83,1.86-1.86s-.83-1.86-1.86-1.86-1.86,.84-1.86,1.86,.83,1.86,1.86,1.86m0-2.91c.58,0,1.05,.47,1.05,1.05s-.47,1.05-1.05,1.05-1.05-.47-1.05-1.05,.47-1.05,1.05-1.05"/><path class="d" d="M685.07,5.27c-1.03,0-1.86,.83-1.86,1.86s.83,1.86,1.86,1.86,1.86-.83,1.86-1.86-.83-1.86-1.86-1.86m0,2.91c-.58,0-1.05-.47-1.05-1.05s.47-1.05,1.05-1.05,1.05,.47,1.05,1.05-.47,1.05-1.05,1.05"/><rect class="d" y="101.11" width="7.2" height="1.21"/><rect class="d" x="5.34" y="104.18" width="7.2" height="1.21"/><rect class="d" x="18.85" y="124.24" width="6.03" height="1.21"/><rect class="d" x="26.13" y="124.24" width="1.46" height="1.21"/><rect class="d" x="58.72" y="31.63" width="6.79" height=".81"/><rect class="d" x="66.49" y="31.63" width="1.46" height=".81"/><rect class="d" x="55.97" y="33.41" width="8.09" height=".81"/><rect class="d" x="172.77" y="108.31" width="5.99" height=".81"/><rect class="d" x="170.1" y="110.74" width="4.69" height=".81"/><rect class="d" x="154.65" y="134.91" width="5.99" height=".81"/><rect class="d" x="151.99" y="137.33" width="4.69" height=".81"/><rect class="d" x="686.14" y="84.13" width="7.36" height=".81"/><rect class="d" x="694.56" y="84.13" width="1.05" height=".81"/><rect class="d" x="568" y="55.65" width="2.91" height=".81"/><rect class="d" x="574.79" y="58" width="7.36" height=".81"/><rect class="d" x="572.12" y="55.65" width="5.34" height=".81"/><rect class="d" x="129.78" y="67.91" width="5.01" height=".81"/><rect class="d" x="128.08" y="69.77" width="5.01" height=".81"/><rect class="d" x="134.39" y="69.77" width="2.02" height=".81"/><rect class="d" x="176.08" y="33.87" width="5.01" height=".81"/><rect class="d" x="174.38" y="35.73" width="5.01" height=".81"/><rect class="d" x="180.69" y="35.73" width="2.02" height=".81"/><path class="d" d="M145.63,42.55c-.23,0-.45,.03-.66,.09-.54-1.21-1.77-2.03-3.14-2.03s-2.58,.82-3.13,2.02c-.2-.05-.42-.08-.63-.08-1.15,0-2.12,.79-2.39,1.86h-1.37v1.21h1.9c.33,0,.61-.27,.61-.61,0-.69,.56-1.25,1.25-1.25,.24,0,.47,.07,.67,.19,.17,.11,.38,.12,.56,.05,.18-.08,.32-.24,.36-.43,.22-1.02,1.13-1.75,2.17-1.75s1.97,.74,2.18,1.77c.04,.2,.18,.36,.36,.44,.19,.08,.4,.05,.57-.06,.21-.14,.45-.21,.69-.21,.69,0,1.25,.56,1.25,1.25s-.56,1.25-1.25,1.25h-3.78v1.21h3.78c1.36,0,2.47-1.11,2.47-2.47s-1.11-2.47-2.47-2.47"/><rect class="d" x="132.45" y="46.27" width="7.76" height="1.21"/><path class="d" d="M14.6,49.34c-.23,0-.45,.03-.66,.09-.54-1.21-1.77-2.03-3.14-2.03s-2.58,.82-3.13,2.02c-.2-.05-.42-.08-.63-.08-1.15,0-2.12,.79-2.39,1.86h-1.37v1.21h1.9c.33,0,.61-.27,.61-.61,0-.69,.56-1.25,1.25-1.25,.24,0,.47,.07,.67,.19,.17,.11,.38,.12,.56,.05s.32-.24,.36-.43c.22-1.01,1.13-1.75,2.17-1.75s1.97,.74,2.18,1.77c.04,.2,.18,.36,.36,.44,.19,.08,.4,.05,.57-.06,.21-.14,.45-.21,.69-.21,.69,0,1.25,.56,1.25,1.25s-.56,1.25-1.25,1.25h-3.78v1.21h3.78c1.36,0,2.47-1.11,2.47-2.47s-1.11-2.47-2.47-2.47"/><rect class="d" x="1.42" y="53.06" width="7.76" height="1.21"/><path class="d" d="M118.05,4.35c-.26-1.55-1.61-2.73-3.23-2.73-.33,0-.66,.05-.97,.15-.55-1.07-1.67-1.77-2.91-1.77-1.49,0-2.77,1-3.15,2.39-1.71,.27-3.03,1.78-3.03,3.55h1.21c0-1.29,1.05-2.36,2.34-2.38,.3,0,.55-.23,.59-.53,.12-1.03,1-1.81,2.05-1.81,.93,0,1.74,.62,1.99,1.51,.05,.18,.18,.33,.35,.4,.17,.07,.37,.06,.53-.03,.31-.17,.66-.26,1.01-.26,1.14,0,2.06,.92,2.06,2.06,0,.33,.27,.61,.61,.61,.78,0,1.42,.64,1.42,1.42s-.64,1.42-1.42,1.42h-7.28v1.21h7.28c1.45,0,2.63-1.18,2.63-2.63,0-1.26-.89-2.31-2.07-2.57"/><rect class="d" x="100.82" y="8.33" width="8.33" height="1.21"/><rect class="d" x="103.61" y="6.39" width="2.83" height="1.21"/><path class="d" d="M558.27,26.37c.38-.36,.89-.57,1.42-.57,1.14,0,2.06,.93,2.06,2.06,0,.34,.27,.61,.61,.61h2.59v-1.21h-2.04c-.29-1.52-1.62-2.67-3.22-2.67-.56,0-1.09,.14-1.57,.4-.48-.79-1.34-1.29-2.31-1.29-.56,0-1.08,.16-1.53,.47-.48-.31-1.04-.47-1.63-.47-1.57,0-2.87,1.21-3.02,2.74-1.03,.26-1.79,1.2-1.79,2.31,0,1.32,1.07,2.39,2.39,2.39h6.34v-1.21h-6.34c-.65,0-1.17-.53-1.17-1.17s.52-1.17,1.17-1.17h.01c.17,0,.34-.07,.45-.2,.12-.13,.17-.3,.16-.47,0-.06,0-.12,0-.18,0-1,.82-1.82,1.82-1.82,.46,0,.9,.17,1.23,.48,.24,.22,.62,.21,.85-.03,.29-.29,.67-.46,1.08-.46,.7,0,1.3,.47,1.46,1.15,.05,.21,.21,.38,.42,.44,.21,.06,.43,0,.59-.14"/><rect class="d" x="557.83" y="29.93" width="8.45" height="1.21"/><rect class="d" x="560.58" y="32.36" width="9.42" height="1.21"/><path class="d" d="M690.86,53.05c.38-.36,.89-.57,1.42-.57,1.14,0,2.06,.93,2.06,2.06,0,.34,.27,.61,.61,.61h2.59v-1.21h-2.04c-.29-1.52-1.62-2.67-3.22-2.67-.56,0-1.09,.14-1.57,.4-.48-.79-1.34-1.29-2.31-1.29-.56,0-1.08,.16-1.53,.47-.48-.31-1.04-.47-1.63-.47-1.57,0-2.87,1.21-3.02,2.74-1.03,.26-1.79,1.2-1.79,2.31,0,1.32,1.07,2.39,2.39,2.39h6.34v-1.21h-6.34c-.65,0-1.17-.53-1.17-1.17s.52-1.17,1.17-1.17h.01c.17,0,.34-.07,.45-.2,.12-.13,.17-.3,.16-.47,0-.06,0-.12,0-.18,0-1,.82-1.82,1.82-1.82,.46,0,.9,.17,1.23,.48,.24,.22,.62,.21,.85-.03,.29-.29,.67-.46,1.08-.46,.7,0,1.3,.47,1.46,1.15,.05,.21,.21,.38,.42,.44,.21,.06,.43,0,.59-.14"/><rect class="d" x="690.41" y="56.61" width="8.45" height="1.21"/><rect class="d" x="693.16" y="59.03" width="9.42" height="1.21"/><path class="d" d="M621.43,77.68c.21-.08,.43-.11,.65-.11,1.05,0,1.9,.85,1.9,1.9h1.21c0-1.71-1.39-3.11-3.11-3.11-.21,0-.41,.02-.61,.06-.67-.82-1.66-1.3-2.73-1.3-1.75,0-3.21,1.28-3.48,2.95-1.09,.16-1.93,1.1-1.93,2.24,0,1.21,.98,2.22,2.18,2.26,.02,0,.03,0,.05,0h4.2v-1.21h-4.18c-.57-.01-1.03-.48-1.03-1.05s.47-1.05,1.05-1.05c.05,0,.1,0,.15,0,.17,.02,.35-.03,.48-.14,.13-.11,.21-.28,.21-.46v-.02c0-1.27,1.04-2.31,2.32-2.31,.81,0,1.54,.41,1.97,1.1,.15,.24,.45,.35,.72,.25"/><rect class="d" x="620.81" y="81.36" width="7.48" height="1.21"/><rect class="d" x="622.34" y="83.37" width="7.48" height="1.21"/><rect class="g" x=".93" y="151.18" width="709.58" height="1.21"/></svg>