<?xml version="1.0" encoding="utf-8"?>
<!-- Generator: Adobe Illustrator 25.4.1, SVG Export Plug-In . SVG Version: 6.00 Build 0)  -->
<svg version="1.1" id="Calque_1" xmlns="http://www.w3.org/2000/svg" xmlns:xlink="http://www.w3.org/1999/xlink" x="0px" y="0px"
	 viewBox="0 0 400 400" style="enable-background:new 0 0 400 400;" xml:space="preserve">
<style type="text/css">
	.st0{fill:#67BFD3;}
</style>
<g>
	<path class="st0" d="M32.9,332.6l0-184.5c0-16.8,13.5-30.5,30.1-30.6h64.4v12.1H63.1c-9.8,0.1-18.1,8.6-18.1,18.5l0,184.5H32.9z"/>
	<rect x="354.6" y="292.4" class="st0" width="12.1" height="40.2"/>
	<path class="st0" d="M360.6,371.4H38.9c-16.6,0-30.2-13.5-30.2-30.2l0-14.7h382l0,14.7C390.8,357.9,377.3,371.4,360.6,371.4z
		 M20.8,338.6v2.6c0,10,8.1,18.1,18.1,18.1h321.7c10,0,18.1-8.1,18.1-18.1v-2.6H20.8z"/>
	<rect x="38.9" y="149.6" class="st0" width="88.5" height="12.1"/>
	<path class="st0" d="M360.6,298.4H103.3c-16.6,0-30.2-13.5-30.2-30.2V155.7h12.1v112.6c0,10,8.1,18.1,18.1,18.1s18.1-8.1,18.1-18.1
		V29h269.4v239.3C390.8,284.9,377.3,298.4,360.6,298.4z M127.4,286.4h233.3c10,0,18.1-8.1,18.1-18.1V41.1H133.4v227.2
		C133.4,275.1,131.2,281.3,127.4,286.4z"/>
	<rect x="159.6" y="69.2" class="st0" width="193" height="12.1"/>
	<rect x="159.6" y="101.4" class="st0" width="193" height="12.1"/>
	<rect x="272.2" y="149.6" class="st0" width="80.4" height="12.1"/>
	<rect x="272.2" y="230.1" class="st0" width="80.4" height="12.1"/>
	<rect x="272.2" y="189.9" class="st0" width="80.4" height="12.1"/>
	<path class="st0" d="M254.1,242.1h-92.5v-92.5h92.5V242.1z M173.7,230.1H242v-68.4h-68.4V230.1z"/>
</g>
</svg>
