<?xml version="1.0" encoding="utf-8"?>
<!-- Generator: Adobe Illustrator 25.4.1, SVG Export Plug-In . SVG Version: 6.00 Build 0)  -->
<svg version="1.1" id="Calque_1" xmlns="http://www.w3.org/2000/svg" xmlns:xlink="http://www.w3.org/1999/xlink" x="0px" y="0px"
	 viewBox="0 0 400 400" style="enable-background:new 0 0 400 400;" xml:space="preserve">
<style type="text/css">
	.st0{fill:#67BFD3;}
</style>
<g>
	<path class="st0" d="M250.2,19.7l-215.6,0c-8.8,0-15.9,7.4-15.9,16.5l-0.1,326.7c0,9.1,7.1,16.5,15.9,16.5l215.6,0
		c8.6,0,15.9-7.6,15.9-16.5l0.1-326.7C266.1,27.1,259,19.7,250.2,19.7z M31.1,126.8l105.1,0l0,113.9l-105.1,0L31.1,126.8z
		 M148.6,126.9l105.1,0l0,113.9l-105.1,0L148.6,126.9z M34.6,32l215.6,0c1.9,0,3.5,1.9,3.5,4.1l0,78.3l-222.7,0l0-78.3
		C31.1,33.9,32.7,32,34.6,32z M31,362.9l0-109.8l105.1,0l0,113.9l-101.6,0C32.7,367,31,365.1,31,362.9z M250.1,367.1l-101.6,0
		l0-113.9l105.1,0l0,109.8C253.7,365.1,252,367.1,250.1,367.1z"/>
	<path class="st0" d="M110.2,179.8l-20.6,0l0-22.2c0-3.4-2.8-6.2-6.2-6.2s-6.2,2.8-6.2,6.2l0,22.2l-20.6,0c-3.4,0-6.2,2.8-6.2,6.2
		c0,3.4,2.8,6.2,6.2,6.2l20.6,0l0,22.2c0,3.4,2.8,6.2,6.2,6.2c3.4,0,6.2-2.8,6.2-6.2l0-22.2l20.6,0c3.4,0,6.2-2.8,6.2-6.2
		S113.7,179.8,110.2,179.8z"/>
	<path class="st0" d="M222.1,161.6c-2.5-2.3-6.4-2.2-8.7,0.3l-37.8,40.1c-2.3,2.5-2.2,6.4,0.3,8.7c1.2,1.1,2.7,1.7,4.2,1.7
		c1.6,0,3.3-0.7,4.5-1.9l37.8-40.1C224.7,167.8,224.6,163.9,222.1,161.6z"/>
	<path class="st0" d="M92,311.3l14.9-15.8c2.3-2.5,2.2-6.4-0.3-8.7c-2.5-2.3-6.4-2.2-8.7,0.3l-14.4,15.3L69,287
		c-2.3-2.5-6.3-2.6-8.7-0.3c-2.5,2.3-2.6,6.3-0.3,8.7L75,311.3L60,327.1c-2.3,2.5-2.2,6.4,0.3,8.7c1.2,1.1,2.7,1.7,4.2,1.7
		c1.6,0,3.3-0.7,4.5-1.9l14.4-15.3l14.4,15.3c1.2,1.3,2.9,1.9,4.5,1.9c1.5,0,3-0.6,4.2-1.7c2.5-2.3,2.6-6.3,0.3-8.7L92,311.3z"/>
	<path class="st0" d="M227.8,289.9l-53.5,0c-3.4,0-6.2,2.8-6.2,6.2c0,3.4,2.8,6.2,6.2,6.2l53.5,0c3.4,0,6.2-2.8,6.2-6.2
		C234,292.6,231.2,289.9,227.8,289.9z"/>
	<path class="st0" d="M227.8,320.4l-53.5,0c-3.4,0-6.2,2.8-6.2,6.2c0,3.4,2.8,6.2,6.2,6.2l53.5,0c3.4,0,6.2-2.8,6.2-6.2
		C234,323.2,231.2,320.4,227.8,320.4z"/>
	<path class="st0" d="M180.2,177.3c3.4,0,6.6-1.4,9-3.9c4.8-5.1,4.8-13,0-18.1c-2.4-2.5-5.6-3.9-9-3.9c-3.4,0-6.6,1.4-9,3.9
		c-4.8,5.1-4.8,13,0,18.1C173.5,175.9,176.7,177.3,180.2,177.3C180.2,177.3,180.2,177.3,180.2,177.3z"/>
	<path class="st0" d="M229.2,197.6c-2.4-2.5-5.6-3.9-9-3.9c0,0,0,0,0,0c-3.4,0-6.6,1.4-9,3.9c0,0,0,0,0,0c-4.8,5.1-4.8,13,0,18.1
		c2.4,2.5,5.6,3.9,9,3.9c3.4,0,6.6-1.4,9-3.9C234,210.6,234,202.7,229.2,197.6z M215.6,201.8L215.6,201.8L215.6,201.8L215.6,201.8z"
		/>
	<path class="st0" d="M379.7,87.8c-1.2-1.2-2.7-1.8-4.4-1.8l-23,0l0-30.2c0-1.6-0.7-3.2-1.8-4.4c-1.2-1.2-2.7-1.8-4.4-1.8l-44.5,0
		c-3.4,0-6.2,2.8-6.2,6.2l0,34.6c-0.2,0.6-0.3,1.2-0.3,1.8s0.1,1.2,0.3,1.8l0,192.9c0,12,2.8,22.2,8.1,29.6
		c3.6,4.9,8.3,8.4,13.4,10.1l0,19.8c0,3.4,2.8,6.2,6.2,6.2c3.4,0,6.2-2.8,6.2-6.2l0-19.4c5.7-1.4,11-5.1,14.9-10.5
		c5.3-7.3,8.1-17.6,8.1-29.6l0-188.6l16.8,0l-0.2,80.2c0,3.4,2.8,6.2,6.2,6.2c0,0,0,0,0,0c3.4,0,6.2-2.8,6.2-6.2l0.2-86.3
		C381.6,90.5,380.9,89,379.7,87.8z M340,286.9c0,18.9-8.4,28.7-16.5,28.4c-0.1,0-0.1,0-0.2,0c-7.8-0.4-15.5-10.2-15.5-28.4l0-188.6
		l32.2,0L340,286.9z M340,86l-32.2,0l0-24l32.2,0L340,86z"/>
</g>
</svg>
