<!-- icon666.com - MILLIONS vector ICONS FREE --><svg clip-rule="evenodd" fill-rule="evenodd" stroke-linejoin="round" stroke-miterlimit="2" viewBox="0 0 32 32" xmlns="http://www.w3.org/2000/svg"><path d="m30 31c.392 0 .748-.229.911-.587.162-.357.1-.776-.158-1.072l-14-16c-.19-.217-.465-.341-.753-.341s-.563.124-.753.341l-14 16c-.258.296-.32.715-.158 1.072.163.358.519.587.911.587h5c.283 0 .554-.12.743-.331l8.257-9.174s8.257 9.174 8.257 9.174c.189.211.46.331.743.331zm0-12c.392 0 .748-.229.911-.587.162-.357.1-.776-.158-1.072l-14-16c-.19-.217-.465-.341-.753-.341s-.563.124-.753.341l-14 16c-.258.296-.32.715-.158 1.072.163.358.519.587.911.587h5c.283 0 .554-.12.743-.331l8.257-9.174s8.257 9.174 8.257 9.174c.189.211.46.331.743.331z" fill="#000000" style="fill: rgb(255, 255, 255);"></path></svg>