<?xml version="1.0" encoding="utf-8"?>
<!-- Generator: Adobe Illustrator 24.1.2, SVG Export Plug-In . SVG Version: 6.00 Build 0)  -->
<svg version="1.1" xmlns="http://www.w3.org/2000/svg" xmlns:xlink="http://www.w3.org/1999/xlink" x="0px" y="0px"
	 viewBox="0 0 119 101" style="enable-background:new 0 0 119 101;" xml:space="preserve">
<style type="text/css">
	.st0{fill-rule:evenodd;clip-rule:evenodd;fill:#53C5CF;}
	.st1{fill-rule:evenodd;clip-rule:evenodd;fill:#2E373B;}
	.st2{fill:#2E373B;}
	.st3{fill:#3F3F41;}
</style>
<g id="_x31_9">
	<path class="st0" d="M56.18,10.41c23.88,0,43.26,19.38,43.26,43.26S80.07,96.91,56.18,96.91c-23.88,0-43.26-19.36-43.26-43.24
		S32.3,10.41,56.18,10.41L56.18,10.41z"/>
	<path class="st1" d="M32.66,4.36h37.79c1.55,0,2.96,0.57,4,1.47l0,0l0,0c1.04,0.9,1.67,2.15,1.67,3.51v68.64
		c0,0.51-0.08,1-0.25,1.45h2.43c-0.02-0.12-0.02-0.23-0.02-0.35V56.45c0-0.92,0.43-1.74,1.1-2.35l0.02,0.02
		c0.69-0.61,1.63-0.98,2.66-0.98h16.81c1.04,0,1.98,0.37,2.66,0.96v0.02h0.02c0.67,0.61,1.1,1.43,1.1,2.33v22.63
		c0,0.12,0,0.24-0.02,0.35h1.92c0.57,0,1.06,0.43,1.06,0.94v1.59c0,0.53-0.49,0.94-1.06,0.94H71.33c-0.29,0.04-0.59,0.06-0.88,0.06
		H32.66c-1.55,0-2.98-0.55-4-1.45v-0.02h-0.02c-1.02-0.9-1.65-2.14-1.65-3.51V9.34c0-1.35,0.63-2.61,1.65-3.51h0.02l0,0
		C29.68,4.93,31.11,4.36,32.66,4.36L32.66,4.36z M95.66,59.25H92.7c-0.2,0-0.39,0.1-0.53,0.24c-0.14,0.16-0.21,0.35-0.21,0.57v2.59
		c0,0.22,0.08,0.43,0.21,0.57l0,0c0.14,0.14,0.33,0.24,0.53,0.24h2.96c0.21,0,0.39-0.1,0.53-0.24l0,0c0.14-0.14,0.24-0.35,0.24-0.57
		v-2.59c0-0.22-0.1-0.41-0.24-0.57C96.05,59.35,95.87,59.25,95.66,59.25L95.66,59.25z M88.2,72.18h-2.98c-0.2,0-0.37,0.08-0.51,0.22
		l0,0c-0.14,0.16-0.24,0.35-0.24,0.59v2.57c0,0.23,0.1,0.43,0.24,0.59l0,0c0.14,0.14,0.31,0.22,0.51,0.22h2.98
		c0.2,0,0.39-0.08,0.53-0.22l0,0c0.14-0.16,0.22-0.35,0.22-0.59v-2.57c0-0.24-0.08-0.43-0.22-0.59l0,0
		C88.59,72.26,88.39,72.18,88.2,72.18L88.2,72.18z M95.66,72.18H92.7c-0.2,0-0.39,0.08-0.53,0.22l0,0
		c-0.14,0.16-0.21,0.35-0.21,0.59v2.57c0,0.23,0.08,0.43,0.21,0.59l0,0c0.14,0.14,0.33,0.22,0.53,0.22h2.96
		c0.21,0,0.39-0.08,0.53-0.22l0,0c0.14-0.16,0.24-0.35,0.24-0.59v-2.57c0-0.24-0.1-0.43-0.24-0.59l0,0
		C96.05,72.26,95.87,72.18,95.66,72.18L95.66,72.18z M88.2,65.72h-2.98c-0.2,0-0.37,0.1-0.51,0.23c-0.14,0.14-0.24,0.35-0.24,0.57
		v2.59c0,0.22,0.1,0.43,0.24,0.57c0.14,0.14,0.31,0.23,0.51,0.23h2.98c0.2,0,0.39-0.1,0.53-0.23c0.14-0.14,0.22-0.35,0.22-0.57
		v-2.59c0-0.22-0.08-0.43-0.22-0.57C88.59,65.82,88.39,65.72,88.2,65.72L88.2,65.72z M95.66,65.72H92.7c-0.2,0-0.39,0.1-0.53,0.23
		s-0.21,0.35-0.21,0.57v2.59c0,0.22,0.08,0.43,0.21,0.57s0.33,0.23,0.53,0.23h2.96c0.21,0,0.39-0.1,0.53-0.23
		c0.14-0.14,0.24-0.35,0.24-0.57v-2.59c0-0.22-0.1-0.43-0.24-0.57C96.05,65.82,95.87,65.72,95.66,65.72L95.66,65.72z M88.2,59.25
		h-2.98c-0.2,0-0.37,0.1-0.51,0.24c-0.14,0.16-0.24,0.35-0.24,0.57v2.59c0,0.22,0.1,0.43,0.24,0.57l0,0
		c0.14,0.14,0.31,0.24,0.51,0.24h2.98c0.2,0,0.39-0.1,0.53-0.24l0,0c0.14-0.14,0.22-0.35,0.22-0.57v-2.59
		c0-0.22-0.08-0.41-0.22-0.57C88.59,59.35,88.39,59.25,88.2,59.25L88.2,59.25z M46.11,26.13h-7.17c-0.55,0-1.06,0.2-1.43,0.51l0,0
		c-0.35,0.33-0.59,0.76-0.59,1.25v5.25c0,0.47,0.24,0.92,0.59,1.23l0,0c0.37,0.33,0.88,0.53,1.43,0.53h7.17
		c0.55,0,1.04-0.2,1.41-0.53l0,0c0.37-0.31,0.59-0.76,0.59-1.23v-5.25c0-0.49-0.22-0.92-0.59-1.25l0,0
		C47.15,26.32,46.66,26.13,46.11,26.13L46.11,26.13z M46.11,12.96h-7.17c-0.55,0-1.06,0.21-1.43,0.53l0,0
		c-0.35,0.31-0.59,0.76-0.59,1.25v5.23c0,0.49,0.24,0.94,0.59,1.25l0,0c0.37,0.31,0.88,0.51,1.43,0.51h7.17
		c0.55,0,1.04-0.2,1.41-0.51l0,0c0.37-0.31,0.59-0.76,0.59-1.25v-5.23c0-0.49-0.22-0.94-0.59-1.25l0,0
		C47.15,13.18,46.66,12.96,46.11,12.96L46.11,12.96z M64.16,12.96h-7.17c-0.55,0-1.06,0.21-1.41,0.53l0,0
		c-0.37,0.31-0.59,0.76-0.59,1.25v5.23c0,0.49,0.21,0.94,0.59,1.25l0,0c0.35,0.31,0.86,0.51,1.41,0.51h7.17
		c0.55,0,1.06-0.2,1.41-0.51l0,0c0.37-0.31,0.59-0.76,0.59-1.25v-5.23c0-0.49-0.21-0.94-0.59-1.25l0,0
		C65.21,13.18,64.71,12.96,64.16,12.96L64.16,12.96z M46.11,65.58h-7.17c-0.55,0-1.06,0.2-1.43,0.51l0,0
		c-0.35,0.33-0.59,0.76-0.59,1.25v5.25c0,0.47,0.24,0.92,0.59,1.23l0,0c0.37,0.33,0.88,0.53,1.43,0.53h7.17
		c0.55,0,1.04-0.2,1.41-0.53l0,0c0.37-0.31,0.59-0.76,0.59-1.23v-5.25c0-0.49-0.22-0.92-0.59-1.25l0,0
		C47.15,65.78,46.66,65.58,46.11,65.58L46.11,65.58z M64.16,65.58h-7.17c-0.55,0-1.06,0.2-1.41,0.51l0,0
		c-0.37,0.33-0.59,0.76-0.59,1.25v5.25c0,0.47,0.21,0.92,0.59,1.23l0,0c0.35,0.33,0.86,0.53,1.41,0.53h7.17
		c0.55,0,1.06-0.2,1.41-0.53l0,0c0.37-0.31,0.59-0.76,0.59-1.23v-5.25c0-0.49-0.21-0.92-0.59-1.25l0,0
		C65.21,65.78,64.71,65.58,64.16,65.58L64.16,65.58z M46.11,52.42h-7.17c-0.55,0-1.06,0.22-1.43,0.53l0,0
		c-0.35,0.31-0.59,0.76-0.59,1.25v5.23c0,0.49,0.24,0.94,0.59,1.25l0,0c0.37,0.31,0.88,0.51,1.43,0.51h7.17
		c0.55,0,1.04-0.2,1.41-0.51l0,0c0.37-0.31,0.59-0.76,0.59-1.25V54.2c0-0.49-0.22-0.94-0.59-1.25l0,0
		C47.15,52.63,46.66,52.42,46.11,52.42L46.11,52.42z M64.16,52.42h-7.17c-0.55,0-1.06,0.22-1.41,0.53l0,0
		c-0.37,0.31-0.59,0.76-0.59,1.25v5.23c0,0.49,0.21,0.94,0.59,1.25l0,0c0.35,0.31,0.86,0.51,1.41,0.51h7.17
		c0.55,0,1.06-0.2,1.41-0.51l0,0c0.37-0.31,0.59-0.76,0.59-1.25V54.2c0-0.49-0.21-0.94-0.59-1.25l0,0
		C65.21,52.63,64.71,52.42,64.16,52.42L64.16,52.42z M46.11,39.27h-7.17c-0.55,0-1.06,0.2-1.43,0.53l0,0
		c-0.35,0.31-0.59,0.74-0.59,1.23v5.25c0,0.49,0.24,0.92,0.59,1.25l0,0c0.37,0.31,0.88,0.51,1.43,0.51h7.17
		c0.55,0,1.04-0.2,1.41-0.51l0,0c0.37-0.33,0.59-0.76,0.59-1.25v-5.25c0-0.49-0.22-0.92-0.59-1.23l0,0
		C47.15,39.47,46.66,39.27,46.11,39.27L46.11,39.27z M64.16,39.27h-7.17c-0.55,0-1.06,0.2-1.41,0.53l0,0
		c-0.37,0.31-0.59,0.74-0.59,1.23v5.25c0,0.49,0.21,0.92,0.59,1.25l0,0c0.35,0.31,0.86,0.51,1.41,0.51h7.17
		c0.55,0,1.06-0.2,1.41-0.51l0,0c0.37-0.33,0.59-0.76,0.59-1.25v-5.25c0-0.49-0.21-0.92-0.59-1.23l0,0
		C65.21,39.47,64.71,39.27,64.16,39.27L64.16,39.27z M64.16,26.13h-7.17c-0.55,0-1.06,0.2-1.41,0.51l0,0
		c-0.37,0.33-0.59,0.76-0.59,1.25v5.25c0,0.47,0.21,0.92,0.59,1.23l0,0c0.35,0.33,0.86,0.53,1.41,0.53h7.17
		c0.55,0,1.06-0.2,1.41-0.53l0,0c0.37-0.31,0.59-0.76,0.59-1.23v-5.25c0-0.49-0.21-0.92-0.59-1.25l0,0
		C65.21,26.32,64.71,26.13,64.16,26.13L64.16,26.13z"/>
</g>
<g id="Layer_1">
</g>
</svg>
