<?xml version="1.0" encoding="utf-8"?>
<!-- Generator: Adobe Illustrator 24.1.2, SVG Export Plug-In . SVG Version: 6.00 Build 0)  -->
<svg version="1.1" xmlns="http://www.w3.org/2000/svg" xmlns:xlink="http://www.w3.org/1999/xlink" x="0px" y="0px"
	 viewBox="0 0 119 101" style="enable-background:new 0 0 119 101;" xml:space="preserve">
<style type="text/css">
	.st0{fill-rule:evenodd;clip-rule:evenodd;fill:#53C5CF;}
	.st1{fill-rule:evenodd;clip-rule:evenodd;fill:#2E373B;}
	.st2{fill:#2E373B;}
	.st3{fill:#3F3F41;}
</style>
<g id="_x31_9">
	<path class="st0" d="M47.27,5.07c23.88,0,43.24,19.36,43.24,43.24c0,23.88-19.36,43.24-43.24,43.24
		c-23.9,0-43.26-19.36-43.26-43.24C4.01,24.42,23.37,5.07,47.27,5.07L47.27,5.07z"/>
	<path class="st2" d="M46.15,49.4v31.68c0.02,1.21,0.8,1.96,1.43,2.33c0.69,0.37,1.39,0.55,2.17,0.55h14.44
		c0.49,0,0.98-0.2,1.33-0.55c0.35-0.35,0.55-0.84,0.55-1.33V66.84h14.38v15.24c0,0.49,0.2,0.98,0.55,1.33
		c0.35,0.35,0.84,0.55,1.35,0.55h14.42c0.78,0,1.51-0.18,2.17-0.55c0.63-0.37,1.41-1.12,1.43-2.33V49.4L73.26,24.74L46.15,49.4z
		 M47.05,5.36l22.16,0.9L45.48,27.75L47.05,5.36z M110.92,40.66L76.69,9.51c-1.94-1.76-4.92-1.76-6.86,0L35.61,40.66
		c-2.08,1.88-2.21,5.07-0.31,7.13v0.02c1,1.08,2.37,1.63,3.74,1.63c1.24,0,2.47-0.43,3.45-1.31l30.78-28.03l30.8,28.03
		c2.06,1.88,5.29,1.74,7.17-0.31C113.13,45.74,112.99,42.54,110.92,40.66L110.92,40.66z"/>
</g>
<g id="Layer_1">
</g>
</svg>
