<?xml version="1.0" encoding="utf-8"?>
<!-- Generator: Adobe Illustrator 24.1.2, SVG Export Plug-In . SVG Version: 6.00 Build 0)  -->
<svg version="1.1" xmlns="http://www.w3.org/2000/svg" xmlns:xlink="http://www.w3.org/1999/xlink" x="0px" y="0px"
	 viewBox="0 0 119 101" style="enable-background:new 0 0 119 101;" xml:space="preserve">
<style type="text/css">
	.st0{fill-rule:evenodd;clip-rule:evenodd;fill:#53C5CF;}
	.st1{fill-rule:evenodd;clip-rule:evenodd;fill:#2E373B;}
	.st2{fill:#2E373B;}
	.st3{fill:#3F3F41;}
</style>
<g id="_x31_9">
	<path class="st0" d="M44.86,7.37c23.88,0,43.26,19.36,43.26,43.24c0,23.9-19.38,43.26-43.26,43.26C20.98,93.86,1.62,74.5,1.62,50.6
		C1.62,26.72,20.98,7.37,44.86,7.37L44.86,7.37z"/>
	<path class="st1" d="M48.32,23.43l0.21,21.39l28.68-7.09V13.38L48.32,23.43z M47.29,45.53l-7.8,1.8l-0.65,29.95l38.38,14.67v-53.8
		l-29.93,7.39V45.53z M78.4,91.94l14.28-6.35v-26l16.22-0.14l-0.2,20.43l8.76-3.06V46.96l-9.36-1.98l0,0l0,0l-0.22-0.06l0,0
		L78.4,37.97V91.94z M107.86,44.51l-0.74-21.08L78.4,13.36v24.19L107.86,44.51z"/>
</g>
<g id="Layer_1">
</g>
</svg>
